PathFileType	4	(X/Y/Z)	C:\Users\Basilio\Documents\Thesis Gigler\squatting_fais\c3dfiles\040\SLS_pre_back5\markers_experimental.trc
DataRate	CameraRate	NumFrames	NumMarkers	Units	OrigDataRate	OrigDataStartFrame	OrigNumFrames
200.000000	200.000000	4	63	mm	200.000000	550	1469
Frame#	Time	FHD			LBHD			RBHD			C7			T10			CLAV			LSHO			LUUPA			LMUPA			LDUPA			LLEP			LMEP			LRAD			LUL			LRFIN			RSHO			RUPA1			RMUPA			RDUPA			RLEP			RMEP			RRAD			RUL			RUFIN			LASI			RASI			USACR			LSACR			RSACR			LTHI1			LTHI2			LTHI3			LTHI4			LLFC			LMFC			LTIB1			LTIB2			LTIB3			LTIB4			LLMAL			LMMAL			LHEE			LMT1			LMT2			LMT5			RTHI			RTHI2			RTHI3			RTHI4			RLFC			RMFC			RTIB1			RTIB2			RTIB3			RTIB4			RLMAL			RMMAL			RHEE			RMT1			RMT2			RMT5			*61			*62			
		X1	Y1	Z1	X2	Y2	Z2	X3	Y3	Z3	X4	Y4	Z4	X5	Y5	Z5	X6	Y6	Z6	X7	Y7	Z7	X8	Y8	Z8	X9	Y9	Z9	X10	Y10	Z10	X11	Y11	Z11	X12	Y12	Z12	X13	Y13	Z13	X14	Y14	Z14	X15	Y15	Z15	X16	Y16	Z16	X17	Y17	Z17	X18	Y18	Z18	X19	Y19	Z19	X20	Y20	Z20	X21	Y21	Z21	X22	Y22	Z22	X23	Y23	Z23	X24	Y24	Z24	X25	Y25	Z25	X26	Y26	Z26	X27	Y27	Z27	X28	Y28	Z28	X29	Y29	Z29	X30	Y30	Z30	X31	Y31	Z31	X32	Y32	Z32	X33	Y33	Z33	X34	Y34	Z34	X35	Y35	Z35	X36	Y36	Z36	X37	Y37	Z37	X38	Y38	Z38	X39	Y39	Z39	X40	Y40	Z40	X41	Y41	Z41	X42	Y42	Z42	X43	Y43	Z43	X44	Y44	Z44	X45	Y45	Z45	X46	Y46	Z46	X47	Y47	Z47	X48	Y48	Z48	X49	Y49	Z49	X50	Y50	Z50	X51	Y51	Z51	X52	Y52	Z52	X53	Y53	Z53	X54	Y54	Z54	X55	Y55	Z55	X56	Y56	Z56	X57	Y57	Z57	X58	Y58	Z58	X59	Y59	Z59	X60	Y60	Z60	X61	Y61	Z61	X62	Y62	Z62	X63	Y63	Z63	

551	2.75	-17.11180496215821	1519.3505859375	-1238.9072265625	-142.6109161376953	1466.791870117188	-1274.626098632813	-192.0595703125001	1431.75	-1140.3173828125	-211.8488311767579	1349.289794921875	-1180.685668945313	-398.7837219238282	1108.41015625	-1131.357055664063	-120.0920944213867	1238.387084960938	-1187.9931640625	-158.8165130615235	1322.202758789063	-1317.09033203125	-26.90608406066895	1253.574096679688	-1413.548461914063	9.135525703430178	1258.031127929688	-1379.764526367188	37.77529525756837	1230.447387695313	-1425.621215820313	89.59930419921876	1193.222900390625	-1434.195068359375	70.34871673583986	1135.965942382813	-1405.254150390625	nan	nan	nan	366.7947082519532	1165.169799804688	-1374.50048828125	433.435516357422	1166.844116210938	-1282.224853515625	-112.7216415405274	1319.498168945313	-1061.302612304688	30.8521957397461	1239.675048828125	-986.635437011719	60.33607864379884	1253.296142578125	-1023.33154296875	96.02903747558597	1213.140869140625	-993.002868652344	154.6905059814453	1191.878540039063	-1009.577270507813	129.0432434082032	1130.749145507813	-1048.134399414063	389.6960754394532	1185.153686523438	-1188.916625976563	411.9311523437501	1169.274291992188	-1117.712890625	482.4502868652345	1189.68115234375	-1205.634887695313	-341.0424804687501	879.286560058594	-1220.156005859375	-342.8911132812501	870.746520996094	-1000.792602539063	-485.8694458007814	997.9390258789065	-1111.242553710938	-510.989959716797	976.1267700195315	-1140.361083984375	-507.8415527343751	973.8891601562502	-1082.969970703125	-354.9894714355469	668.0416870117189	-1290.610107421875	-276.5694580078126	635.2963867187501	-1299.552612304688	-241.7429809570313	666.5086059570314	-1300.288208007813	-257.9624023437501	580.1561279296876	-1281.041870117188	-168.3272247314453	494.320526123047	-1264.947021484375	-175.6225891113282	490.7420043945314	-1143.246459960938	-193.3011627197266	285.3021240234376	-1191.905639648438	-271.4042053222657	270.5670166015626	-1234.16162109375	-235.6256561279297	251.6101989746094	-1213.589111328125	-262.0957946777344	182.7386779785157	-1167.997314453125	-357.5953063964844	124.0879669189453	-1177.103759765625	-324.1883239746094	143.336410522461	-1095.829467773438	-427.7922363281251	100.3053894042969	-1121.678466796875	-216.3504028320313	57.84322357177736	-1104.380859375	-218.4708862304688	50.78549575805665	-1150.289184570313	-269.9645080566407	38.98622131347657	-1198.403686523438	-444.6294860839845	629.2669067382814	-935.1583251953127	-424.0708312988282	566.0892333984376	-942.713073730469	-393.5624389648439	560.6430053710939	-954.6257324218752	-471.4489746093751	497.3823852539064	-949.7637329101565	-499.1754150390626	394.9942932128907	-958.5393676757815	-528.4850463867189	397.2712707519532	-1084.618041992188	-662.4553833007814	310.7235717773438	-962.970642089844	-740.0762329101564	374.9523925781251	-920.1193847656252	-741.1002807617189	329.3841552734376	-933.350036621094	-791.2628173828127	310.2255249023438	-960.9216308593752	-906.2258911132815	350.5899963378907	-917.0686035156252	-904.9390869140627	342.9669189453126	-1007.37060546875	-955.8394775390627	418.8257751464845	-962.522644042969	-970.3994750976565	202.2293090820313	-997.7191162109377	-965.286071777344	197.1752319335938	-956.0061645507815	-986.7061157226565	232.5622253417969	-900.521667480469	nan	nan	nan	nan	nan	nan	
552	2.755	-17.22417259216309	1517.55908203125	-1238.707153320313	-142.0163269042969	1465.108642578125	-1274.63671875	-191.6583404541016	1430.27490234375	-1140.235595703125	-211.8631591796876	1347.6455078125	-1180.706420898438	-398.6769104003907	1107.39111328125	-1131.3896484375	-119.6911087036133	1236.728759765625	-1188.14794921875	-157.7229461669922	1320.63623046875	-1317.097900390625	-26.73552322387696	1252.586547851563	-1413.474731445313	10.06672382354737	1256.74853515625	-1379.752563476563	38.14348983764649	1229.497924804688	-1425.76611328125	89.59400939941408	1192.407836914063	-1434.453735351563	70.74671173095705	1134.965698242188	-1405.534912109375	nan	nan	nan	367.1649475097657	1164.141723632813	-1374.604125976563	433.422332763672	1166.31298828125	-1282.327880859375	-112.0079040527344	1317.888305664063	-1061.60546875	32.01182174682618	1238.537841796875	-986.873718261719	61.06612014770509	1251.7490234375	-1023.674011230469	96.45375823974612	1211.516357421875	-993.3380126953127	155.0897521972657	1190.28076171875	-1009.828308105469	129.5510864257813	1128.774536132813	-1048.405883789063	390.9567260742189	1184.401611328125	-1190.02392578125	412.9104003906251	1168.544555664063	-1118.26708984375	483.0537719726564	1189.026733398438	-1205.962036132813	-341.5568237304688	878.1215820312502	-1220.09912109375	-343.6644592285157	869.690124511719	-1000.911987304688	-485.9968872070314	996.9407348632815	-1111.314331054688	-511.1967163085939	975.2849731445315	-1140.3330078125	-508.1989135742189	972.9046630859377	-1082.992919921875	-355.0383605957032	667.3767089843751	-1290.54443359375	-276.5328063964844	634.8645019531251	-1299.353393554688	-241.6713562011719	666.1603393554689	-1300.051147460938	-257.8045349121094	579.7515258789064	-1280.72265625	-167.9744720458985	494.1285705566407	-1264.602172851563	-175.5186309814453	490.6927185058595	-1142.918701171875	-192.9293212890626	285.2382202148438	-1191.388427734375	-271.0383605957032	270.2662963867188	-1233.762451171875	-236.0850830078126	251.7868804931641	-1212.607788085938	-261.8549804687501	182.6553497314453	-1167.577514648438	-357.5138854980469	124.1917495727539	-1176.872192382813	-324.1221313476563	143.1974334716797	-1095.510009765625	-427.7869262695314	100.3181991577149	-1121.56689453125	-216.3103790283204	57.72078323364259	-1104.3154296875	-218.4217376708985	50.7803421020508	-1150.148193359375	-269.8302917480469	39.05045318603516	-1198.287109375	-445.0565185546876	628.2858276367189	-935.2783813476565	-424.5061645507814	565.1663208007814	-942.7178344726565	-394.3131713867189	559.1589355468751	-954.4602661132815	-472.1951599121095	496.2860717773439	-949.7398071289065	-500.0829467773439	394.0018005371095	-958.3919067382815	-530.0601196289064	396.8858032226564	-1084.806762695313	-663.4124145507814	310.0615539550782	-963.0667724609377	-741.0344848632814	374.4167785644532	-919.8107910156252	-742.5493774414064	328.6430969238282	-933.0159912109377	-793.1531982421877	310.9250183105469	-959.3884277343752	-907.157653808594	350.5953674316407	-916.4332275390627	-905.805603027344	342.9454345703126	-1006.958190917969	-956.4658813476565	418.8147583007814	-962.0246582031252	-971.402526855469	201.8676300048829	-997.2359008789065	-965.0738525390627	196.7301788330079	-956.9970703125002	-988.039001464844	232.9230041503907	-899.8632812500002	nan	nan	nan	nan	nan	nan	
553	2.76	-16.71376991271973	1516.024536132813	-1238.875854492188	-141.9485321044922	1463.6953125	-1274.703247070313	-191.2477264404297	1428.41455078125	-1140.347778320313	-210.8597412109376	1346.27783203125	-1180.876098632813	-398.6097412109376	1106.280639648438	-1131.496215820313	-119.5391387939453	1235.16064453125	-1188.276245117188	-157.861572265625	1319.489013671875	-1317.139526367188	-25.16809272766114	1251.315795898438	-1413.881713867188	10.42569828033447	1255.449340820313	-1379.765869140625	38.55760955810548	1228.31640625	-1425.78173828125	90.02560424804689	1191.267578125	-1434.58837890625	71.38204956054689	1133.689331054688	-1405.796508789063	nan	nan	nan	367.6739196777344	1163.273559570313	-1374.82470703125	433.6742248535157	1165.451293945313	-1282.360229492188	-111.5040283203125	1316.610107421875	-1061.822875976563	32.53349685668946	1236.901123046875	-987.1961669921877	61.44934844970705	1250.5400390625	-1023.750610351563	97.25869750976565	1210.231079101563	-993.5493774414065	155.6932373046875	1188.810546875	-1010.306945800781	130.2354278564453	1128.06689453125	-1049.14208984375	391.4176635742189	1183.49658203125	-1190.291381835938	413.4810180664064	1167.69677734375	-1118.6123046875	483.5068359375001	1188.2705078125	-1206.2578125	-341.8140258789063	877.315856933594	-1220.268188476563	-343.9219360351563	868.2891845703127	-1001.071350097656	-486.3110351562501	996.117614746094	-1111.329833984375	-511.4562988281251	974.5430908203127	-1140.401611328125	-508.7247924804689	972.1270141601565	-1083.11865234375	-355.0551147460938	666.6299438476564	-1290.374145507813	-276.6331787109376	634.3769531250001	-1299.173583984375	-241.7468719482422	665.8140869140626	-1299.814819335938	-257.5303344726563	579.4075317382814	-1280.374389648438	-167.6856994628907	493.8872375488282	-1264.165649414063	-175.4214630126953	490.7058410644532	-1142.58642578125	-192.6968383789063	284.9415283203126	-1190.718017578125	-270.6824340820313	270.6364746093751	-1233.30810546875	-234.9829101562501	251.6497497558594	-1212.499145507813	-261.7658996582032	182.6275634765625	-1167.217407226563	-357.3898010253907	124.217514038086	-1176.651123046875	-324.1432189941407	143.1494140625	-1095.17822265625	-427.7327575683595	100.3781814575196	-1121.4130859375	-216.1946563720704	57.788387298584	-1104.278686523438	-218.3763885498047	50.78017425537111	-1149.964721679688	-269.9948730468751	39.28225326538087	-1198.289184570313	-445.5523376464845	627.0947265625001	-935.310241699219	-425.112518310547	563.8570556640626	-942.6724853515627	-394.6535034179689	558.3323974609376	-954.8464355468752	-472.655731201172	495.1534729003907	-949.914245605469	-500.838592529297	393.0760192871095	-958.512634277344	-530.7212524414064	395.5421447753907	-1084.758544921875	-664.1011352539064	309.3026733398438	-963.108093261719	-741.5882568359376	373.8925476074219	-919.5870361328127	-742.8858032226564	328.0923156738282	-932.9722290039065	-793.9080810546877	310.3526000976563	-958.4219360351565	-907.951110839844	350.4262695312501	-916.0040283203127	-906.7878417968752	342.8139343261719	-1006.495300292969	-957.0605468750002	418.9724426269532	-961.4212036132815	-973.0844726562502	202.466537475586	-996.6506958007815	-967.7595825195315	197.2474517822266	-955.0298461914065	-988.872253417969	233.6264953613282	-898.861999511719	nan	nan	nan	nan	nan	nan	
554	2.765	-16.4215259552002	1514.575073242188	-1238.936767578125	-141.399154663086	1462.08984375	-1274.711059570313	-190.8822021484375	1427.147094726563	-1140.41650390625	-210.7148437500001	1344.887329101563	-1180.93798828125	-398.5476074218751	1105.18896484375	-1131.502075195313	-119.206787109375	1233.534912109375	-1188.403076171875	-157.402587890625	1318.205078125	-1317.151977539063	-24.64132881164551	1250.213134765625	-1413.939697265625	10.44306755065918	1254.852294921875	-1379.926391601563	39.42145156860352	1227.118774414063	-1425.813720703125	90.84011077880861	1190.217895507813	-1434.639282226563	71.86592102050783	1132.667236328125	-1406.073120117188	nan	nan	nan	367.7838745117188	1162.627563476563	-1375.05908203125	434.5228881835939	1164.339111328125	-1282.656982421875	-111.1456909179688	1314.78076171875	-1061.83642578125	32.13082885742188	1235.254760742188	-988.218933105469	62.07102584838869	1248.9619140625	-1023.922058105469	97.60729980468753	1208.905151367188	-994.709655761719	155.8393096923828	1187.038452148438	-1011.142944335938	130.7797088623047	1126.649291992188	-1049.319580078125	391.3132324218751	1182.084350585938	-1190.050415039063	414.0513305664064	1166.0693359375	-1119.060180664063	484.4319152832032	1187.082275390625	-1206.613891601563	-342.1489868164063	876.4077758789065	-1220.399780273438	-344.2922363281251	867.1528930664065	-1001.182067871094	-486.5195312500001	995.376647949219	-1111.471435546875	-511.9154663085939	973.8253173828127	-1140.47021484375	-508.2276916503907	970.9599609375002	-1083.140869140625	-355.1123657226563	665.9658203125001	-1290.290771484375	-276.4796447753907	633.8356323242189	-1298.705688476563	-241.8740692138672	665.3855590820314	-1299.539672851563	-257.3892211914063	578.9790039062501	-1280.236694335938	-167.4714660644532	493.6402282714845	-1263.70361328125	-175.4010620117188	490.4254150390626	-1140.892578125	-192.4323120117188	285.0499572753907	-1190.184448242188	-270.1847839355469	269.8850402832032	-1232.89794921875	-234.7426300048829	251.5933532714844	-1211.767700195313	-261.7043457031251	182.6794738769532	-1166.510498046875	-357.3780822753907	124.3005599975586	-1176.390014648438	-324.0950927734376	142.9456939697266	-1094.840576171875	-427.685272216797	100.3555603027344	-1121.288330078125	-216.1574401855469	57.66856002807619	-1104.222534179688	-218.4250488281251	50.78063964843751	-1149.81787109375	-269.9745788574219	39.40002822875977	-1198.238891601563	-446.2178955078126	626.3798828125001	-935.2401123046877	-425.7247924804689	563.0731811523439	-942.9578857421877	-394.8073120117189	557.4434814453126	-955.0106201171877	-473.3318481445314	494.1235656738282	-949.999938964844	-501.5888671875001	392.1739196777345	-958.5050048828127	-531.0266113281251	394.4326782226564	-1084.602661132813	-665.3414306640626	308.7242431640626	-963.1315917968752	-742.0857543945314	373.2952270507813	-919.4683227539065	-743.7823486328126	327.3993225097657	-932.6716308593752	-794.5503540039065	309.9519042968751	-958.5544433593752	-908.534606933594	350.0790100097657	-915.6795654296877	-907.423522949219	342.2006835937501	-1005.851684570313	-957.8784179687502	419.0639953613282	-960.8007812500002	-974.453063964844	202.6180725097657	-996.135192871094	-969.1646118164065	197.453842163086	-954.5015258789065	-989.7986450195315	233.7497558593751	-898.523376464844	nan	nan	nan	nan	nan	nan	
